<svg id="Layer_1" data-name="Layer 1" xmlns="http://www.w3.org/2000/svg" viewBox="0 0 190.13 257.33"><defs><style>.cls-2{fill:#fff}</style></defs><path d="M175.2 332.16v-3.36c.45-4.33 3.14-7.51 5.59-10.8a64.63 64.63 0 0 0 6-9.66 14.55 14.55 0 0 0 .27-12.64 57.38 57.38 0 0 1-3.3-8.73 27.59 27.59 0 0 1 0-11.76c1.49-7.69 2.4-15.48 3.83-23.18a32.35 32.35 0 0 0-.09-10.93 22 22 0 0 1 3.27-15.26 57.45 57.45 0 0 1 21.31-20.08 123.6 123.6 0 0 1 23.45-10.3 154.83 154.83 0 0 1 23.5-5.22 102.72 102.72 0 0 1 12.76-.9c1.75-.06 3.51-.07 5.27-.1h6.63c10.69-.27 20.71 2.41 30.34 6.86a74.87 74.87 0 0 1 16.71 10.5 103.44 103.44 0 0 1 13.85 13.91 91.79 91.79 0 0 1 11.17 17.28 88.21 88.21 0 0 1 8.92 30.33 137.91 137.91 0 0 1 .24 16.77 76.51 76.51 0 0 1-2.2 15.87 102 102 0 0 1-6 17.82c-4.49 10.27-11 19.29-17.78 28.09-3.81 4.93-7.92 9.63-11.34 14.86a29.75 29.75 0 0 0-5.15 15.47 29 29 0 0 0 1.81 10.57c1.12 3.22 2.9 6.15 3.91 9.4a10.32 10.32 0 0 1-1.87 10.25 24.69 24.69 0 0 1-4.67 3.73c-6.3 4.6-12.5 9.33-18.73 14-8.76 6.58-17.53 13.13-26.6 19.28-3.71 2.51-7.77 2.5-11.86 1.43-1.76-.45-3-1.94-4.1-3.37a49.84 49.84 0 0 1-7.3-13.57c-2.36-6.29-4.47-12.67-7.23-18.8-1.69-3.72-3.51-7.37-6.43-10.33a8.8 8.8 0 0 0-8.24-2.85 83.59 83.59 0 0 1-19.2 1.45c-4.7-.21-9.17-1.25-13-4.3a20 20 0 0 1-6.32-9.15 69.62 69.62 0 0 1-3.38-14.08 9.83 9.83 0 0 0-1.4-4.06 22 22 0 0 1-3.07-16.88 24.26 24.26 0 0 0 .36-3.69 5.06 5.06 0 0 0-2.55-4.85 38.47 38.47 0 0 1-4.95-3.77 7.6 7.6 0 0 1-2.43-5.25z" transform="translate(-175.17 -189.09)" fill="#1776bb"/><path class="cls-2" d="M175.2 332.16c1.17 4.07 4.3 6.38 7.66 8.47a5.67 5.67 0 0 1 2.86 5.19 64.31 64.31 0 0 1-.72 6.79 18.71 18.71 0 0 0 2.33 11.79 23.79 23.79 0 0 1 3 9 51.1 51.1 0 0 0 3.43 12.6c2.64 6.4 7.53 10.07 14.31 11.21 6.3 1.06 12.59.45 18.87-.35 1.38-.17 2.76-.45 4.14-.67a9.53 9.53 0 0 1 8.86 3.16c3.82 4.09 6 9.12 8 14.22 2.14 5.43 4.16 10.89 6.18 16.36a45.27 45.27 0 0 0 7.09 12.58c3.24 4 8.65 4.91 13.63 1.93 4.49-2.69 8.71-5.82 12.92-8.93 11.65-8.64 23.26-17.36 34.92-26 2.09-1.54 4.06-3.08 4.95-5.66 1.14-3.36.33-6.46-1.11-9.49a48.58 48.58 0 0 1-3.93-10.4 28.09 28.09 0 0 1 3.91-21.7c3.58-5.72 8-10.75 12.15-16.06 6.54-8.45 12.75-17.12 17.16-26.92 6.37-14.15 9.72-28.94 8.91-44.47a90.85 90.85 0 0 0-25.16-59.15c-9.14-9.74-19.76-17.27-32.43-21.77a79.6 79.6 0 0 0-23.2-4.54c-.17-.06-.18-.12 0-.2h80.27c.87 0 1.11.15 1.11 1.08v255.2c0 .85-.16 1-1 1h-188c-.95 0-1.08-.27-1.08-1.13q-.02-56.57-.03-113.14zM276.94 189.31a158.78 158.78 0 0 0-32.84 4.39 110.77 110.77 0 0 0-39.53 17.72 48.8 48.8 0 0 0-14.06 16.16 20.31 20.31 0 0 0-2.17 14.6c.9 4.09.21 8.09-.49 12.12-1.38 7.9-2.54 15.85-3.89 23.76a23.12 23.12 0 0 0 1.92 13.34c.85 1.94 1.74 3.87 2.39 5.88a14.36 14.36 0 0 1-1 11.38 56.17 56.17 0 0 1-5.53 9 40.8 40.8 0 0 0-6.57 11.17V190.3c0-1 .17-1.18 1.16-1.18q50.31.06 100.63 0l.16.11z" transform="translate(-175.17 -189.09)"/><path d="M276.94 189.31a1.23 1.23 0 0 1 0-.19h2.64l.15.11-.17.08z" transform="translate(-175.17 -189.09)" fill="#cfd8f0"/><path d="M279.58 189.31a1.11 1.11 0 0 1 0-.19h2.16c.17 0 .18.12 0 .2z" transform="translate(-175.17 -189.09)" fill="#9fb6df"/><path d="M281.78 189.32v-.2h2.16a1.34 1.34 0 0 1 0 .2z" transform="translate(-175.17 -189.09)" fill="#cfd9f0"/><path class="cls-2" d="M263 331.73c-.32-4.54 0-9.11-.23-13.65a21.39 21.39 0 0 0-5.13-12.79 112.19 112.19 0 0 1-9.38-13A27.45 27.45 0 1 1 299 274.71a26.64 26.64 0 0 1-4.4 18.59c-2.55 3.83-5.3 7.5-8.22 11.06a27.06 27.06 0 0 0-6.06 18.95c.15 3.71 0 7.43 0 11.15a1.92 1.92 0 0 1-1.63 2.06 32.78 32.78 0 0 1-14.15 0 1.85 1.85 0 0 1-1.55-2z" transform="translate(-175.17 -189.09)"/><path class="cls-2" d="M195.09 305.28c.91-5.11-.29-9.87-2.54-14.39a23.09 23.09 0 0 1-1.84-15.26c1.43-7.36 2.38-14.82 3.71-22.21a34.32 34.32 0 0 0 0-12.74 14.85 14.85 0 0 1 1.88-10.39c4.52-8 11-13.86 18.94-18.4a118.56 118.56 0 0 1 38.27-13.67 138.89 138.89 0 0 1 29-2.61 70.91 70.91 0 0 1 44.63 16.94c15.22 12.81 25.37 28.87 29.45 48.45a85.58 85.58 0 0 1-6.94 56.27 139.41 139.41 0 0 1-19.73 29.67c-5.38 6.28-10.18 12.95-13.19 20.74a3.75 3.75 0 0 1-.33.53 12 12 0 0 1 .35-5.34c1.46-5.69 4.48-10.52 8.08-15.09 4.66-5.9 9.52-11.64 13.79-17.84a90.14 90.14 0 0 0 15.48-38.44c3.5-23.91-2.43-45.44-17.48-64.34a78.69 78.69 0 0 0-34.3-24.94 63.24 63.24 0 0 0-21.51-3.71A126.12 126.12 0 0 0 224 210.64a56.83 56.83 0 0 0-22.13 17.75 25.54 25.54 0 0 0-5 10.92 32.9 32.9 0 0 0 .06 7.29c.28 4.84-.62 9.54-1.47 14.27-1.2 6.72-2.32 13.46-3.09 20.25a13.21 13.21 0 0 0 .93 6.11c.89 2.39 1.83 4.77 2.75 7.15a12.69 12.69 0 0 1-.72 11.41c-.33.02-.33-.22-.24-.51z" transform="translate(-175.17 -189.09)"/><path class="cls-2" d="M286.94 325.23a26.61 26.61 0 0 1-.06-7 15.5 15.5 0 0 1 3.65-8.93c3.09-3.88 6-7.88 8.82-12 9-13.16 8.09-30.39-2.65-41.94-9.32-10-20.95-13.53-34.15-9.81s-21.13 12.74-24 26.09c-2 9.32.09 17.91 5.47 25.74 2.83 4.12 5.76 8.16 8.89 12.06a17.54 17.54 0 0 1 3.71 11.74v4.8h-.31c-1.88-4.8-5.46-8.07-9.87-10.37a10.76 10.76 0 0 1-5.27-6c-1.18-3-2.55-6-3.78-8.93a14.65 14.65 0 0 0-2.27-3.93 1.87 1.87 0 0 1-.28-2.11 12 12 0 0 0 .1-9.33 17.44 17.44 0 0 1-.55-9.79c1-5.13 1.71-10.33 3.13-15.37a19.34 19.34 0 0 1 8.78-11.55 54.06 54.06 0 0 1 21.39-7.26c6.84-.95 13.5-.62 19.87 2.1 11.91 5.08 19 14.08 21.79 26.7 2.87 12.88-.55 24.16-8 34.58a89.08 89.08 0 0 1-6.3 7.69 44.92 44.92 0 0 0-7.62 11.72c-.14.4-.32.75-.49 1.1z" transform="translate(-175.17 -189.09)"/><path class="cls-2" d="M310.53 357.11a24.21 24.21 0 0 1 4.26-11.81c3.4-4.94 7.15-9.62 11-14.25a85.93 85.93 0 0 0 19-41.58 70.06 70.06 0 0 0-5.79-40.58 70.91 70.91 0 0 0-22.15-28.14c-9.18-6.9-19.34-11.49-30.83-12.82a91.67 91.67 0 0 0-17.84 0 112.62 112.62 0 0 0-34.31 8.39 58.72 58.72 0 0 0-22.15 15.6 25.09 25.09 0 0 0-6.09 13.33 50.56 50.56 0 0 0-.12 5.51 81.27 81.27 0 0 1-2.06 14.46 94.66 94.66 0 0 0-1.75 17.62 18.58 18.58 0 0 0 2.64 9.83c1.62 2.76 1.17 7.42-1.09 10.14a28.47 28.47 0 0 0 .09-5.36 22.16 22.16 0 0 0-2.33-8 19.36 19.36 0 0 1-1.76-12.93c1.26-6.59 2.11-13.25 3.32-19.85a30.05 30.05 0 0 0 .91-8c-.15-1.71-.5-3.4-.48-5.13a19.36 19.36 0 0 1 4.28-12.08 54.28 54.28 0 0 1 20.06-15.41 116.79 116.79 0 0 1 36.94-10.47 108.82 108.82 0 0 1 21.42-.58 60.24 60.24 0 0 1 29.81 10.87c14.59 10.14 24.7 23.58 29.94 40.59a77.37 77.37 0 0 1 3.43 24.59c-.25 11.83-3.44 22.93-8.65 33.49-4.75 9.64-11.13 18.2-18 26.4-4.22 5.06-8.06 10.32-10.62 16.44-.33.77-.56 1.57-.83 2.36-.65-.09-.33-.6-.34-.91a5 5 0 0 1 .09-1.72z" transform="translate(-175.17 -189.09)"/><path class="cls-2" d="M292.19 336.69a22.61 22.61 0 0 1 5.35-17.26c3.42-4.13 7-8.12 10.07-12.52a49.38 49.38 0 0 0 9-27.12c.65-18.79-11.24-35-25.22-41.47-8.05-3.72-16.47-4.23-25.1-3a64.06 64.06 0 0 0-20 6.08 28.18 28.18 0 0 0-15.88 20.95c-1 5.3-2 10.6-2.78 15.93a13.59 13.59 0 0 0 .74 7.07 11.69 11.69 0 0 1 0 8.87 5.43 5.43 0 0 0 1.35 6.17 7.87 7.87 0 0 1 1.81 2.78c1.46 3.76 3.2 7.4 4.89 11.07a13.51 13.51 0 0 0 6.67 6.72 14.71 14.71 0 0 1 7.91 9.46 26.38 26.38 0 0 1 .95 6.75c-.51 0-.57-.36-.75-.57a10 10 0 0 0-4.93-3.24 62.7 62.7 0 0 1-9.26-3.6 6.56 6.56 0 0 1-3.36-3.57 128.29 128.29 0 0 1-4.58-13.36c-.94-3.25-1.85-6.56-4.46-9a1.71 1.71 0 0 1-.33-2 20.37 20.37 0 0 1 1.61-3.07 11 11 0 0 0 1.21-9.79 29.61 29.61 0 0 1-1-17.08c1.2-5.37 1.85-10.87 3-16.26a20 20 0 0 1 8.65-12.78 61.09 61.09 0 0 1 23.72-9.54 67.85 67.85 0 0 1 19.44-1 38.52 38.52 0 0 1 20 8.23c8.94 7 15.12 15.86 17.62 27 3.61 16-.09 30.57-9.87 43.63-2.47 3.29-5.14 6.44-7.73 9.64-3.79 4.69-7.32 9.7-8.74 15.88z" transform="translate(-175.17 -189.09)"/><path class="cls-2" d="M211.41 299.51c.1-1.36.22-2.71.31-4.06a7 7 0 0 0-1-4.27c-2.8-4.37-3.27-9.09-2.64-14.15.87-7 1.95-13.92 3.38-20.81a18.73 18.73 0 0 0 .36-5.73c-.64-5.8 1.42-10.61 5.08-15 4-4.75 9-8.08 14.42-10.93a96 96 0 0 1 34.15-10.07 91.87 91.87 0 0 1 18.31-.49 53.82 53.82 0 0 1 28.4 11.08c9.93 7.54 17.57 16.89 22.1 28.55q10.79 27.78-1.83 54.89c-3.87 8.29-9.13 15.65-14.91 22.68-3.34 4.08-6.8 8.08-9.43 12.69a39.71 39.71 0 0 0-3.11 7 1.8 1.8 0 0 1-.66 1.16 20.85 20.85 0 0 1 .53-6.05c1-5 3.78-9.09 6.83-13 3.74-4.84 7.87-9.37 11.33-14.43a71.07 71.07 0 0 0 12.59-34c1.55-17-3.22-32.12-13.77-45.51a58.2 58.2 0 0 0-27.11-19.58 56.67 56.67 0 0 0-21.72-2.8 101.22 101.22 0 0 0-27.48 5.1 65.05 65.05 0 0 0-20.52 10.88 27.74 27.74 0 0 0-10.69 19.13c-.85 7.62-2.15 15.19-3.58 22.72-.94 4.92-1 9.66 1 14.32.37.83.55 1.75.86 2.61a9.24 9.24 0 0 1-1 8.58c-.4-.02-.29-.26-.2-.51z" transform="translate(-175.17 -189.09)"/><path class="cls-2" d="M219.61 296.39a19.28 19.28 0 0 0-1.62-9 19.71 19.71 0 0 1-1-11.93c1.62-8.75 2.91-17.57 4.29-26.37a14.89 14.89 0 0 1 3.77-7.75c5.24-5.88 11.83-9.62 19.1-12.41a87.25 87.25 0 0 1 36.6-5.93 46.66 46.66 0 0 1 29.63 12.85 57.64 57.64 0 0 1 15.8 23.27c5.65 16 4.22 31.59-3 46.76-3.14 6.62-7.58 12.4-12.2 18-2.23 2.72-4.47 5.43-6.57 8.25a37.13 37.13 0 0 0-5.36 10.53 2.72 2.72 0 0 1-.69 1.37 18.82 18.82 0 0 1 0-4 22.39 22.39 0 0 1 3.23-9.31 118.79 118.79 0 0 1 9.82-12.84 62 62 0 0 0 14.64-34.32c1.41-14.82-2.9-28-12.32-39.54a48.87 48.87 0 0 0-25.44-16.88 55.39 55.39 0 0 0-19.75-1.14 85.77 85.77 0 0 0-27.69 7.62c-6.67 3-12 7.28-15.38 13.78a35.76 35.76 0 0 0-3.17 10.74c-1.23 7.16-2.56 14.31-3.49 21.52a11.54 11.54 0 0 0 .51 4.74c.5 1.68 1.06 3.34 1.6 5a8 8 0 0 1-.89 7.23c-.23.1-.34-.03-.42-.24zM248.28 399.56c-.86-1.17-1.62-2.24-2.41-3.28a15.85 15.85 0 0 0-9.85-6.34 24.61 24.61 0 0 0-8.92.41 55.49 55.49 0 0 1-18.1.65 11.84 11.84 0 0 1-9.58-7.95 57.39 57.39 0 0 1-3.29-13.22 16.61 16.61 0 0 0-2.39-6.84 16 16 0 0 1-2.23-11.49 27.78 27.78 0 0 0 .54-8 10.44 10.44 0 0 0-5.24-7.9 22 22 0 0 1-3-2.13 4.42 4.42 0 0 1-1.13-5.72 23.31 23.31 0 0 1 3-4.6c.11.7.19 1.27.3 1.83a9.41 9.41 0 0 0 4.94 6.71c3.17 1.74 4.49 4.22 4 7.82a30.31 30.31 0 0 0 0 9.07 9.13 9.13 0 0 0 1.08 3.28 33.36 33.36 0 0 1 4.15 12.14 33.75 33.75 0 0 0 2.58 8.34 15.86 15.86 0 0 0 13.34 9.77 82.08 82.08 0 0 0 18.07 0 8 8 0 0 1 7.64 3.33 41.26 41.26 0 0 1 6.39 12.66 1.9 1.9 0 0 1 .11 1.46z" transform="translate(-175.17 -189.09)"/><path class="cls-2" d="M196 316.79c.41.43.32.91.43 1.32a9.42 9.42 0 0 0 4.56 6.06 5.84 5.84 0 0 1 3.2 6.27 32.45 32.45 0 0 0 .19 7.17 11 11 0 0 0 1.53 4.38 28.25 28.25 0 0 1 3.26 8.58 38.38 38.38 0 0 0 3 9.3c2.26 4.52 6.09 6.85 11.08 7.29s9.8.73 14.72.79a6.42 6.42 0 0 1 5.51 3.12 47.61 47.61 0 0 1 5.4 12.36 2.28 2.28 0 0 1 0 .46l-3.16-3.53c-3.38-3.76-7.58-4.95-12.55-4.45a69.58 69.58 0 0 1-16.38-.05 10 10 0 0 1-8.62-6.82 54.25 54.25 0 0 1-2.72-10.41 17.76 17.76 0 0 0-2.44-6.84 14.57 14.57 0 0 1-2-10.32 23.13 23.13 0 0 0 .24-6.33 9.88 9.88 0 0 0-4.75-7.27 16.92 16.92 0 0 1-2.59-1.93 3.56 3.56 0 0 1-1.11-3.94 18.6 18.6 0 0 1 3.2-5.21zM258.65 423.68c.65.14.93.62 1.25 1.08 3.4 4.85 9.24 6 14.38 3 10.41-6.09 19.86-13.56 29.59-20.63 3.84-2.79 7.64-5.66 11.48-8.46a18.4 18.4 0 0 0 4.21-4 18.39 18.39 0 0 1 2.22 5.19 3.52 3.52 0 0 1-1.61 3.64c-1.7 1.32-3.44 2.6-5.18 3.87-12.8 9.38-25.28 19.19-38.32 28.23-1.41 1-2.8 2-4.27 2.9-2.94 1.81-5.3 1.42-7.3-1.36a46.61 46.61 0 0 1-6.43-13.14 1.94 1.94 0 0 1-.02-.32z" transform="translate(-175.17 -189.09)"/><path class="cls-2" d="M206.59 309.86a30 30 0 0 0 .94 3 8.55 8.55 0 0 0 3.23 3.61 5.16 5.16 0 0 1 2.64 4.89 22.12 22.12 0 0 0 3.19 12.35 22 22 0 0 1 2.52 7.33 13.88 13.88 0 0 0 13.16 11.38 81.82 81.82 0 0 1 9.59 1.42 4.87 4.87 0 0 1 3.54 2.82 56.72 56.72 0 0 1 3.91 10.66 1.25 1.25 0 0 1-.06 1c-.9-1-1.74-2.08-2.66-3.05a11.6 11.6 0 0 0-9-3.49 84.73 84.73 0 0 1-13-1 9 9 0 0 1-7.36-5.62 46.57 46.57 0 0 1-2.88-9.37 12.9 12.9 0 0 0-1.69-4.32 15.88 15.88 0 0 1-2.24-11 10.28 10.28 0 0 0-5.21-10.83 3.66 3.66 0 0 1-1.65-4.74c.81-1.76 1.92-3.27 3.03-5.04zM312.72 382.87a17.05 17.05 0 0 1 1.92 5.81 4 4 0 0 1-1.68 3.89c-13.22 9.73-26.14 19.88-40 28.68a9.23 9.23 0 0 1-2.56 1.3 5 5 0 0 1-4.89-1.19 11.66 11.66 0 0 1-2.39-3 64.22 64.22 0 0 1-4.69-10.36c-.09-.26-.26-.5-.11-.86.59 0 .73.52 1 .86a11.45 11.45 0 0 0 15.13 2.87c9-5.45 17.76-11.22 26.21-17.47 2.63-1.95 5.18-4 7.9-5.85a14.47 14.47 0 0 0 4.16-4.68z" transform="translate(-175.17 -189.09)"/><path class="cls-2" d="M258 391.07a.58.58 0 0 1 .77.26c4.16 4.93 9.7 5.51 15.38 2.66a159.19 159.19 0 0 0 25.6-16.15c1.08-.82 2.11-1.71 3.21-2.5 1.37-1 2.06-2.4 2.91-3.93a11.79 11.79 0 0 1 1.53 5.15 6.05 6.05 0 0 1-2.65 6 380 380 0 0 1-31.49 21.64 14.71 14.71 0 0 1-2.34 1.19c-2.8 1.08-4.95.58-6.88-1.72a31.59 31.59 0 0 1-4.92-9.26c-.39-1.11-.72-2.24-1.12-3.34zM217.4 302.57c.29 2.28.8 4.24 2.44 5.44s2.3 3 2.85 4.81c1.61 5.3 3.06 10.66 5.34 15.74a13.68 13.68 0 0 0 7.26 7.28 82.54 82.54 0 0 0 7.93 3 7 7 0 0 1 4.53 4.13 49.08 49.08 0 0 1 2.76 8.53c.07.33.3.81 0 1s-.55-.33-.74-.58a12.14 12.14 0 0 0-9-4.85c-3.07-.24-6.1-.82-9.12-1.36a7.18 7.18 0 0 1-5.56-4.61 51.78 51.78 0 0 1-2-5.52 32.76 32.76 0 0 0-2.95-6.92 11.74 11.74 0 0 1-1.42-6.94 10.45 10.45 0 0 0-4.37-9.8c-1.75-1.33-2-2.39-.94-4.29.91-1.58 1.87-3.17 2.99-5.06z" transform="translate(-175.17 -189.09)"/><path class="cls-2" d="M257.9 374.73c.56-.07.7.22.9.39a13.7 13.7 0 0 0 13.3 2.95c7.75-2.12 14.37-6.26 20.58-11.19.38-.29.75-.59 1.14-.88 2.23-1.63 4.48-3.24 5.18-6.22a11.66 11.66 0 0 1 1.24 4.47v1.07c.36 3-.86 5.05-3.32 6.86a198 198 0 0 1-23.64 15.26 15 15 0 0 1-3.42 1.39 6 6 0 0 1-6.39-2c-2.96-3.45-4.2-7.76-5.57-12.1z" transform="translate(-175.17 -189.09)"/><path class="cls-2" d="M292.21 347.41a30.23 30.23 0 0 1 .94 7.87 6.41 6.41 0 0 1-2.89 5.74 93.58 93.58 0 0 1-14.86 9.41 17.26 17.26 0 0 1-7.25 1.88 6.6 6.6 0 0 1-5.78-2.6c-2.2-3-3.25-6.44-4-10.27a19.24 19.24 0 0 0 5.25 2c3.47.63 6.84 0 10.2-.74a44.3 44.3 0 0 0 9.75-3.24 15.2 15.2 0 0 0 8.23-9.46c.07-.22 0-.51.41-.59z" transform="translate(-175.17 -189.09)"/><path class="cls-2" d="M258.89 340.49a23.86 23.86 0 0 0 9.2 2.79c6.07.54 11.9-.12 17-3.86.9-.66.81.21.92.56a10 10 0 0 1-4.38 11.33 28.28 28.28 0 0 1-15.84 3.86 5.2 5.2 0 0 1-4.83-3.4 35.83 35.83 0 0 1-2.07-11.28z" transform="translate(-175.17 -189.09)"/><path d="M310.53 357.11c.23.87-.32 1.81.27 2.64-.06.14-.09.36-.17.39-.31.09-.29-.2-.3-.36a6.51 6.51 0 0 1 .2-2.67z" transform="translate(-175.17 -189.09)" fill="#7599d0"/><path d="M195.09 305.28l.29.51c0 .36-.06.71-.53.83-.28-.54.03-.93.24-1.34z" transform="translate(-175.17 -189.09)" fill="#98bbe0"/><path d="M219.61 296.39l.42.2c-.11.26-.16.73-.52.56s-.15-.53.1-.76z" transform="translate(-175.17 -189.09)" fill="#85b1da"/><path d="M211.41 299.51c.07.16 0 .39.26.47 0 .16-.19.35-.32.25-.29-.23-.07-.49.06-.72z" transform="translate(-175.17 -189.09)" fill="#86a4d5"/></svg>